<svg width="66" height="66" viewBox="0 0 66 66" fill="none" xmlns="http://www.w3.org/2000/svg">
<rect width="66" height="66" fill="white"/>
<mask id="path-2-inside-1" fill="white">
<path d="M10 42C10 37.0294 14.0294 33 19 33H47C51.9706 33 56 37.0294 56 42V55C56 55.5523 55.5523 56 55 56H11C10.4477 56 10 55.5523 10 55V42Z"/>
</mask>
<path d="M10 42C10 37.0294 14.0294 33 19 33H47C51.9706 33 56 37.0294 56 42V55C56 55.5523 55.5523 56 55 56H11C10.4477 56 10 55.5523 10 55V42Z" stroke="#40DEDE" stroke-width="6" mask="url(#path-2-inside-1)"/>
<path d="M40.1667 20C40.1667 25.0404 36.293 29 31.6667 29C27.0404 29 23.1667 25.0404 23.1667 20C23.1667 14.9596 27.0404 11 31.6667 11C36.293 11 40.1667 14.9596 40.1667 20Z" stroke="#40DEDE" stroke-width="3"/>
<mask id="path-5-inside-2" fill="white">
<path d="M12 42C12 37.0294 16.0294 33 21 33H47C51.9706 33 56 37.0294 56 42V55C56 55.5523 55.5523 56 55 56H13C12.4477 56 12 55.5523 12 55V42Z"/>
</mask>
<path d="M12 42C12 37.0294 16.0294 33 21 33H47C51.9706 33 56 37.0294 56 42V55C56 55.5523 55.5523 56 55 56H13C12.4477 56 12 55.5523 12 55V42Z" stroke="#37C4E5" stroke-width="6" mask="url(#path-5-inside-2)"/>
<path d="M43.1 20C43.1 24.9706 39.0705 29 34.1 29C29.1294 29 25.1 24.9706 25.1 20C25.1 15.0294 29.1294 11 34.1 11C39.0705 11 43.1 15.0294 43.1 20Z" stroke="#37C4E5" stroke-width="3"/>
<rect x="21.5" y="41.5" width="11" height="5" rx="1.5" stroke="#40DEDE"/>
<rect x="23.5" y="41.5" width="9" height="5" rx="1.5" stroke="#37C4E5"/>
</svg>
