<svg width="66" height="66" viewBox="0 0 66 66" fill="none" xmlns="http://www.w3.org/2000/svg">
<rect width="66" height="66" fill="white"/>
<path d="M7.5 28C7.5 26.6193 8.61929 25.5 10 25.5H56C57.3807 25.5 58.5 26.6193 58.5 28V46C58.5 47.3807 57.3807 48.5 56 48.5H10C8.61929 48.5 7.5 47.3807 7.5 46V28Z" stroke="#37C4E5" stroke-width="3"/>
<g filter="url(#filter0_d)">
<path d="M11 47.5C11 48.8807 9.88071 50 8.5 50C7.11929 50 6 48.8807 6 47.5C6 46.1193 7.11929 45 8.5 45C9.88071 45 11 46.1193 11 47.5Z" stroke="#37C4E5" stroke-width="3"/>
</g>
<g filter="url(#filter1_d)">
<path d="M60.5 47.5C60.5 48.8807 59.3807 50 58 50C56.6193 50 55.5 48.8807 55.5 47.5C55.5 46.1193 56.6193 45 58 45C59.3807 45 60.5 46.1193 60.5 47.5Z" stroke="#37C4E5" stroke-width="3"/>
</g>
<line x1="25" y1="21.5" x2="42" y2="21.5" stroke="#40DEDE"/>
<line x1="14" y1="35.5" x2="31" y2="35.5" stroke="#40DEDE" stroke-width="3"/>
<line x1="14" y1="41.5" x2="31" y2="41.5" stroke="#40DEDE"/>
<mask id="path-8-inside-1" fill="white">
<path d="M16 16C16 14.8954 16.8954 14 18 14H49C50.1046 14 51 14.8954 51 16V25C51 26.1046 50.1046 27 49 27H18C16.8954 27 16 26.1046 16 25V16Z"/>
</mask>
<path d="M16 16C16 14.8954 16.8954 14 18 14H49C50.1046 14 51 14.8954 51 16V25C51 26.1046 50.1046 27 49 27H18C16.8954 27 16 26.1046 16 25V16Z" stroke="#37C4E5" stroke-width="6" mask="url(#path-8-inside-1)"/>
<defs>
<filter id="filter0_d" x="0.5" y="43.5" width="16" height="16" filterUnits="userSpaceOnUse" color-interpolation-filters="sRGB">
<feFlood flood-opacity="0" result="BackgroundImageFix"/>
<feColorMatrix in="SourceAlpha" type="matrix" values="0 0 0 0 0 0 0 0 0 0 0 0 0 0 0 0 0 0 127 0"/>
<feOffset dy="4"/>
<feGaussianBlur stdDeviation="2"/>
<feColorMatrix type="matrix" values="0 0 0 0 0 0 0 0 0 0 0 0 0 0 0 0 0 0 0.25 0"/>
<feBlend mode="normal" in2="BackgroundImageFix" result="effect1_dropShadow"/>
<feBlend mode="normal" in="SourceGraphic" in2="effect1_dropShadow" result="shape"/>
</filter>
<filter id="filter1_d" x="50" y="43.5" width="16" height="16" filterUnits="userSpaceOnUse" color-interpolation-filters="sRGB">
<feFlood flood-opacity="0" result="BackgroundImageFix"/>
<feColorMatrix in="SourceAlpha" type="matrix" values="0 0 0 0 0 0 0 0 0 0 0 0 0 0 0 0 0 0 127 0"/>
<feOffset dy="4"/>
<feGaussianBlur stdDeviation="2"/>
<feColorMatrix type="matrix" values="0 0 0 0 0 0 0 0 0 0 0 0 0 0 0 0 0 0 0.25 0"/>
<feBlend mode="normal" in2="BackgroundImageFix" result="effect1_dropShadow"/>
<feBlend mode="normal" in="SourceGraphic" in2="effect1_dropShadow" result="shape"/>
</filter>
</defs>
</svg>
