<svg width="66" height="66" viewBox="0 0 66 66" fill="none" xmlns="http://www.w3.org/2000/svg">
<rect width="66" height="66" fill="white"/>
<path d="M19 38C21.3164 34.4843 26.9906 32 33.6232 32C40.0315 32 45.5452 34.3192 48 37.6471" stroke="#37C4E5" stroke-width="3" stroke-linecap="round" stroke-linejoin="round"/>
<path d="M11 25C14.5145 21.4843 23.1237 19 33.1869 19C42.9098 19 51.2755 21.3192 55 24.6471" stroke="#37C4E5" stroke-width="3" stroke-linecap="round" stroke-linejoin="round"/>
<path d="M4 12C8.55292 8.48432 19.7057 6 32.7421 6C45.3377 6 56.1751 8.3192 61 11.6471" stroke="#37C4E5" stroke-width="3" stroke-linecap="round" stroke-linejoin="round"/>
<path d="M40 53C40 56.866 36.866 60 33 60C29.134 60 26 56.866 26 53C26 49.134 29.134 46 33 46C36.866 46 40 49.134 40 53Z" stroke="#37C4E5" stroke-width="2"/>
</svg>
