<svg width="66" height="66" viewBox="0 0 66 66" fill="none" xmlns="http://www.w3.org/2000/svg">
<rect width="66" height="66" fill="white"/>
<rect x="11.5" y="36.5" width="43" height="15" rx="1.5" stroke="#37C4E5" stroke-width="3"/>
<path d="M7.5 28C7.5 27.1716 8.17157 26.5 9 26.5H57C57.8284 26.5 58.5 27.1716 58.5 28V35C58.5 35.8284 57.8284 36.5 57 36.5H9C8.17157 36.5 7.5 35.8284 7.5 35V28Z" stroke="#37C4E5" stroke-width="3"/>
<path d="M26 10C26 7.79086 27.7909 6 30 6H36C38.2091 6 40 7.79086 40 10H26Z" stroke="#37C4E5" stroke-width="2"/>
<path d="M24 14H25V20H24V14Z" fill="#40DEDE"/>
<path d="M32 14H34V20H32V14Z" fill="#40DEDE"/>
<path d="M41 14H42V20H41V14Z" fill="#40DEDE"/>
<path d="M16 53V58M51 53V58" stroke="#37C4E5" stroke-width="2"/>
<line x1="32" y1="43.5" x2="49" y2="43.5" stroke="#40DEDE"/>
<line x1="15" y1="40.5" x2="31" y2="40.5" stroke="#40DEDE"/>
<line x1="24" y1="45.5" x2="40" y2="45.5" stroke="#40DEDE"/>
</svg>
